<?xml version="1.0" encoding="UTF-8" standalone="no"?>
<!-- Created with Inkscape (http://www.inkscape.org/) -->

<svg
   width="16.71385mm"
   height="19.416693mm"
   viewBox="0 0 16.71385 19.416693"
   version="1.1"
   id="svg1"
   inkscape:version="1.3 (0e150ed6c4, 2023-07-21)"
   sodipodi:docname="icons_final.svg"
   xmlns:inkscape="http://www.inkscape.org/namespaces/inkscape"
   xmlns:sodipodi="http://sodipodi.sourceforge.net/DTD/sodipodi-0.dtd"
   xmlns="http://www.w3.org/2000/svg"
   xmlns:svg="http://www.w3.org/2000/svg">
  <sodipodi:namedview
     id="namedview1"
     pagecolor="#ffffff"
     bordercolor="#000000"
     borderopacity="0.25"
     inkscape:showpageshadow="2"
     inkscape:pageopacity="0.0"
     inkscape:pagecheckerboard="0"
     inkscape:deskcolor="#d1d1d1"
     inkscape:document-units="mm"
     inkscape:zoom="0.4894542"
     inkscape:cx="2946.1388"
     inkscape:cy="-346.30411"
     inkscape:window-width="1920"
     inkscape:window-height="991"
     inkscape:window-x="-9"
     inkscape:window-y="-9"
     inkscape:window-maximized="1"
     inkscape:current-layer="layer1"
     showguides="true">
    <inkscape:page
       x="-3.4637486e-07"
       y="1.7607852e-09"
       width="16.71385"
       height="19.416693"
       id="page3"
       margin="0"
       bleed="0" />
    <sodipodi:guide
       position="-6.5238301,16.443566"
       orientation="0,-1"
       id="guide3"
       inkscape:locked="false" />
  </sodipodi:namedview>
  <defs
     id="defs1">
    <inkscape:path-effect
       effect="fillet_chamfer"
       id="path-effect28-5-9-3-3-6-4-1-6-8-2-7-4-0-4-1-2-2-5-0-0-27-8-9-4-1-9-83-7-4-7-7-6-7-4-9-8-4-9-2-4-6-8-4-0-3-1-9-3-0"
       is_visible="true"
       lpeversion="1"
       nodesatellites_param="F,0,0,1,0,5.5770464,0,1 @ F,0,0,1,0,5.7345318,0,1 @ F,0,0,1,0,0,0,1 @ F,0,0,1,0,0,0,1"
       radius="0"
       unit="px"
       method="auto"
       mode="F"
       chamfer_steps="1"
       flexible="false"
       use_knot_distance="true"
       apply_no_radius="true"
       apply_with_radius="true"
       only_selected="false"
       hide_knots="false" />
  </defs>
  <g
     inkscape:label="Layer 1"
     inkscape:groupmode="layer"
     id="layer1"
     transform="translate(-549.11908,-0.13514207)">
    <g
       id="g9-4-3-2-7-2-5-2-9-2"
       transform="matrix(-0.19406494,0,0,0.19406494,4353.0508,-952.51606)"
       style="stroke-width:1.96475;stroke-dasharray:none">
      <path
         id="path27-5-1-8-0-3-6-0-4-6-8-1-3-2-2-4-0-7-1-5-2-0-9-4-1-9-4-6-5-5-1-1-1-4-8"
         style="fill:#ffffff;fill-opacity:1;stroke:none;stroke-width:1.96475;stroke-dasharray:none;stroke-opacity:1"
         d="m 19592.835,5000.6953 c 0.02,-0.2848 0,-0.5653 0,-0.846 -0.277,0.3025 -0.644,0.5456 -1.088,0.6719 0.196,0.1322 0.391,0.264 0.586,0.3979 0.03,0.018 0.05,0.037 0.07,0.056 0.145,-0.095 0.289,-0.191 0.437,-0.2783 z m -5.874,-19.7616 c 0,-7e-4 -0.02,-0.011 -0.01,-0.012 -0.38,-0.7801 0.681,0.9447 -0.521,-1.0987 -0.09,-0.1576 -0.216,-0.273 -0.334,-0.4097 -0.01,-0.015 0.02,0.017 0.04,0.027 -0.299,-0.2892 -0.581,-0.5998 -0.859,-0.9083 -0.285,-0.3579 -0.572,-0.7127 -0.855,-1.0724 -0.415,-0.5127 -0.834,-1.0225 -1.225,-1.5542 -0.43,-0.5949 -0.879,-1.1778 -1.294,-1.7833 -4.735,-5.4272 -1.865,-3.34 -4.306,-6.0222 -0.329,-0.3456 -0.683,-0.6677 -1,-1.0249 -0.369,-0.3631 -0.731,-0.731 -1.096,-1.098 -0.379,-0.4125 -0.776,-0.8114 -1.145,-1.2332 -0.265,-0.3308 -0.513,-0.6712 -0.784,-0.9973 -0.311,-0.3754 -0.619,-0.7541 -0.937,-1.124 -0.376,-0.4447 -0.754,-0.8869 -1.103,-1.354 -0.441,-0.5857 -0.92,-1.1422 -1.412,-1.6869 -0.746,-0.845 -1.48,-1.7011 -2.232,-2.5402 -0.08,-0.092 -0.167,-0.1879 -0.249,-0.2823 -0.06,-0.07 -0.126,-0.141 -0.188,-0.2118 -0.01,-0.012 -0.01,-0.012 -0.03,-0.027 -0.04,-0.049 -0.165,-0.097 -0.135,-0.1452 -1.258,-1.4122 -2.478,-2.8508 -3.516,-4.4299 -1.711,-0.6477 -3.214,-2.5101 -4.705,-5.0968 v 0 c -0.993,-1.5459 -2.278,-2.8729 -3.42,-4.3088 -1.112,-1.22 -2.244,-2.4277 -3.211,-3.7694 -1.654,-2.5155 -3.022,-2.1029 -2.319,-2.6979 0.256,0.1579 -0.551,-0.6423 -0.677,-0.7419 -0.437,-0.3439 -0.261,-0.6152 -0.679,-0.983 -0.623,-0.5826 -1.231,-1.1802 -1.847,-1.7709 -0.776,-0.7529 -1.501,-1.553 -2.189,-2.3874 -0.765,-0.8472 -1.528,-1.6973 -2.309,-2.529 -0.873,-0.9438 -1.708,-1.9203 -2.538,-2.9023 -0.327,-0.4133 -0.63,-0.8441 -0.932,-1.2742 -1.311,-0.1072 -2.617,-0.2741 -3.926,-0.4032 -1.428,-0.1727 -2.863,-0.1216 -4.296,-0.086 -1.887,0.082 -3.772,0.048 -5.652,-0.1241 -1.169,-0.1368 -2.335,-0.2985 -3.506,-0.4168 -0.07,0.8461 -0.112,1.7435 -0.121,2.5381 v 3e-4 0 c 0,0.5618 0,1.0707 0.02,1.4728 0.02,0.4669 0.07,0.9139 0.106,1.3605 1.809,0.6865 3.598,2.5206 4.768,5.7802 h 0.02 c 0.35,0.9743 0.747,1.9268 1.144,2.8817 0.257,0.4484 0.344,1.2381 0.747,1.6182 0.441,0.6097 0.865,1.2317 1.301,1.846 0.437,0.7118 0.704,1.0937 1.122,1.6842 0.496,0.739 0.957,1.4973 1.387,2.2764 0.231,0.239 0.459,0.4793 0.685,0.7231 0.618,0.6932 1.269,1.3536 1.915,2.0196 0.546,0.5186 1.05,1.0768 1.567,1.6239 0.37,0.337 0.686,0.7259 1.028,1.0895 0.337,0.3581 0.625,0.7615 0.936,1.1415 0.348,0.4284 0.681,0.8662 1.014,1.3062 0.325,0.4599 0.691,0.8915 1.048,1.326 0.442,0.529 0.895,1.0444 1.327,1.5811 0.408,0.4891 0.799,0.9932 1.195,1.4914 0.494,0.6096 0.991,1.2164 1.492,1.8205 0.558,0.6747 1.101,1.3627 1.641,2.0523 1.857,2.5729 4.025,4.5368 5.942,6.9994 0.428,0.4831 0.917,0.9028 1.393,1.3371 0.408,0.3774 0.833,0.7326 1.269,1.0781 0.757,0.6721 1.413,1.4484 2.095,2.1951 0.555,0.6065 1.087,1.234 1.614,1.8644 0.439,0.5364 0.889,1.0641 1.323,1.604 0.463,0.567 0.904,1.1504 1.36,1.7235 0.367,0.4469 0.74,0.8896 1.127,1.3198 0.197,0.2373 0.406,0.4652 0.612,0.6947 0.507,0.57 0.802,1.1269 0.936,1.6376 0.151,0.1599 0.303,0.3189 0.453,0.4807 0.764,0.8256 1.364,1.7715 1.977,2.7077 0.164,0.1968 0.298,0.421 0.435,0.6408 0.203,0.1723 0.407,0.3745 0.606,0.6131 0.435,0.5213 0.894,1.0214 1.385,1.4913 0.482,0.4364 0.956,0.8769 1.441,1.31 0.301,0.2765 0.609,0.5497 0.922,0.8131 0.423,0.3662 0.812,0.762 1.211,1.154 0.438,0.4472 0.877,0.8962 1.311,1.3479 0.295,0.3079 0.737,1.5688 1.025,1.8832 -0.469,-2.6918 3.937,1.4226 4.878,0.6675 0.967,-0.9053 9.348,4.0451 11.129,4.6745 0.06,-2.3122 -0.467,-6.2018 -1.869,-9.3038 -0.225,-2.863 -1.688,-7.9919 -1.501,-8.0884 z m -9.76,8.7527 c 0,0 -0.02,0.013 -0.02,0.013 0,0 0,0 -0.01,0.013 0,0 0,0 0,0 0,0 0,-0.025 0,-0.027 z"
         sodipodi:nodetypes="cccscccccccccccccccccccccccccccccscscccccccccccccsccccccccccccccccccccccccccccccccscccccccccscccsccc" />
      <path
         style="fill:#000000;fill-opacity:1;stroke:#000000;stroke-width:1.40397;stroke-dasharray:none;stroke-opacity:1"
         id="rect18-7-6-6-4-7-5-2-4-2-3-9-2-1-2-2-2-1-1-9-2-5-7-2-7-4-8-9-2-5-6-3-5-7-9-1-5-5-1-2-8-5-3-8-0-8"
         width="10.313443"
         height="9.3308535"
         x="171.53008"
         y="971.26532"
         ry="0"
         sodipodi:type="rect"
         transform="matrix(-1.3112327,1.1201837,1.1213358,1.3463599,18665.039,3411.9759)"
         d="m 177.10712,971.26532 a 5.2591972,5.2591972 50.445233 0 1 4.7364,5.73453 v 3.59632 h -10.31344 v -3.7538 a 5.5770464,5.5770464 135 0 1 5.57704,-5.57705 z"
         inkscape:path-effect="#path-effect28-5-9-3-3-6-4-1-6-8-2-7-4-0-4-1-2-2-5-0-0-27-8-9-4-1-9-83-7-4-7-7-6-7-4-9-8-4-9-2-4-6-8-4-0-3-1-9-3-0" />
      <path
         style="fill:#000000;fill-opacity:1;stroke:#000000;stroke-width:2.44044;stroke-dasharray:none;stroke-opacity:1"
         d="m 19535.939,4933.614 44.437,52.7018"
         id="path18-0-1-1-8-9-8-6-0-7-0-8-6-5-9-9-1-8-4-8-6-2-5-8-6-1-2-6-8-9-1-4-4-6-9-7-5-0-3-2-0-7-4-9-0-4"
         sodipodi:nodetypes="cc" />
      <path
         style="fill:#000000;fill-opacity:1;stroke:#000000;stroke-width:2.44044;stroke-dasharray:none;stroke-opacity:1"
         d="m 19539.873,4924.6014 48.106,56.881"
         id="path18-4-8-6-8-4-8-7-2-1-4-7-6-6-5-2-3-6-2-8-0-1-8-1-90-5-1-2-9-0-9-2-5-6-4-0-0-9-8-5-8-9-1-2-4-0-9"
         sodipodi:nodetypes="cc" />
      <path
         style="fill:#000000;fill-opacity:1;stroke:#000000;stroke-width:2.44044;stroke-dasharray:none;stroke-opacity:1"
         d="m 19526.415,4936.2739 48.17,57.0189"
         id="path18-4-0-4-4-9-1-9-06-1-7-9-6-4-1-0-1-2-5-8-7-9-3-2-3-1-7-6-8-5-9-7-8-7-1-13-2-7-6-8-1-5-8-9-0-1-6-4"
         sodipodi:nodetypes="cc" />
      <path
         style="fill:#000000;fill-opacity:1;stroke:#000000;stroke-width:2.44044;stroke-dasharray:none;stroke-opacity:1"
         d="m 19543.096,4927.8247 -14.001,11.9536"
         id="path26-9-8-7-7-2-2-2-5-4-0-0-6-5-9-7-6-7-8-5-1-9-3-9-2-2-4-8-9-1-3-0-8-5-6-0-7-1-0-5-0-8-9-7-0-8"
         sodipodi:nodetypes="cc" />
      <path
         style="fill:#0000fa;fill-opacity:0;stroke:#000000;stroke-width:2.44044;stroke-linecap:square;stroke-dasharray:none;stroke-opacity:1;paint-order:fill markers stroke"
         d="m 19587.768,4981.7736 c -0.196,2.824 1.83,14.5929 6.812,21.4707 0,0 -10.198,-9.2014 -19.731,-10.217"
         id="path191-6-6-9-1-2-8-9-7-0-9-8-4-2-0-1-0-8-0-0-6-1-2-8-6-1-6-0-5-6-2-8-9-7-3-9-0-9-5-0-8-2-3-1-4-3"
         sodipodi:nodetypes="ccc" />
      <path
         style="fill:#0000fa;fill-opacity:0;stroke:#000000;stroke-width:2.44044;stroke-linecap:square;stroke-dasharray:none;stroke-opacity:1;paint-order:fill markers stroke"
         d="m 19587.278,4981.5887 c 0,0 -8.42,-4.5534 -6.356,5.2819 0,0 -8.656,-4.3166 -6.356,5.2821"
         id="path192-1-6-7-13-5-3-1-7-1-2-7-0-0-5-8-8-4-6-4-6-2-7-9-2-4-5-6-4-2-6-7-0-6-0-8-5-2-4-0-2-2-7-0-3-1"
         sodipodi:nodetypes="ccc" />
      <path
         style="fill:#0000fa;fill-opacity:0;stroke:#000000;stroke-width:1.96475;stroke-linecap:square;stroke-dasharray:none;stroke-opacity:1;paint-order:fill markers stroke"
         d="m 19593.369,5001.8245 -3.33,-3.9251"
         id="path193-4-9-9-9-2-5-6-3-1-6-7-9-5-6-0-7-9-9-9-4-0-8-42-2-8-2-8-3-4-4-4-5-5-1-9-1-4-3-9-8-4-6-1-9-8"
         sodipodi:nodetypes="cc" />
    </g>
  </g>
</svg>
