<?xml version="1.0" encoding="UTF-8" standalone="no"?>
<!-- Created with Inkscape (http://www.inkscape.org/) -->

<svg
   width="16.173283mm"
   height="15.092147mm"
   viewBox="0 0 16.173283 15.092147"
   version="1.1"
   id="svg1"
   inkscape:version="1.3 (0e150ed6c4, 2023-07-21)"
   sodipodi:docname="icons_final.svg"
   xmlns:inkscape="http://www.inkscape.org/namespaces/inkscape"
   xmlns:sodipodi="http://sodipodi.sourceforge.net/DTD/sodipodi-0.dtd"
   xmlns="http://www.w3.org/2000/svg"
   xmlns:svg="http://www.w3.org/2000/svg">
  <sodipodi:namedview
     id="namedview1"
     pagecolor="#ffffff"
     bordercolor="#000000"
     borderopacity="0.25"
     inkscape:showpageshadow="2"
     inkscape:pageopacity="0.0"
     inkscape:pagecheckerboard="0"
     inkscape:deskcolor="#d1d1d1"
     inkscape:document-units="mm"
     inkscape:zoom="0.4894542"
     inkscape:cx="2946.1388"
     inkscape:cy="-346.30411"
     inkscape:window-width="1920"
     inkscape:window-height="991"
     inkscape:window-x="-9"
     inkscape:window-y="-9"
     inkscape:window-maximized="1"
     inkscape:current-layer="layer1"
     showguides="true">
    <sodipodi:guide
       position="-59.410976,16.308424"
       orientation="0,-1"
       id="guide3"
       inkscape:locked="false" />
    <inkscape:page
       x="0"
       y="9.519872e-09"
       width="16.173283"
       height="15.092147"
       id="page5"
       margin="0"
       bleed="0" />
  </sodipodi:namedview>
  <defs
     id="defs1" />
  <g
     inkscape:label="Layer 1"
     inkscape:groupmode="layer"
     id="layer1"
     transform="translate(-602.00623)">
    <g
       id="g163-9-0-4-9-4-3-5-2-3"
       transform="matrix(0.28522054,0,0,0.28522054,372.27821,-515.51431)"
       style="stroke-width:1.66048;stroke-dasharray:none">
      <path
         style="fill:#000000;fill-opacity:1;stroke:#000000;stroke-width:1.66048;stroke-linecap:round;stroke-dasharray:none;paint-order:fill markers stroke"
         d="m 847.931,1831.1924 9.75,-10.375"
         id="path68-39-7-6-3-9-5-9-6-7-3-0-6-6-6-6" />
      <path
         style="fill:#000000;fill-opacity:1;stroke:#000000;stroke-width:1.66048;stroke-linecap:round;stroke-dasharray:none;paint-order:fill markers stroke"
         d="m 840.48245,1831.1924 6.375,-16.25"
         id="path69-9-6-8-9-0-0-9-1-5-2-6-4-3-0-4" />
      <path
         style="fill:#000000;fill-opacity:1;stroke:#000000;stroke-width:1.66048;stroke-linecap:round;stroke-dasharray:none;paint-order:fill markers stroke"
         d="m 821.1368,1831.1924 -9.75,-10.375"
         id="path68-39-7-6-3-9-7-0-7-9-8-5-3-1-4-1-9" />
      <path
         style="fill:#000000;fill-opacity:1;stroke:#000000;stroke-width:1.66048;stroke-linecap:round;stroke-dasharray:none;paint-order:fill markers stroke"
         d="m 828.58535,1831.1924 -6.375,-16.25"
         id="path69-9-6-8-9-0-5-6-1-2-0-3-9-1-5-2-4" />
      <path
         style="fill:#000000;fill-opacity:1;stroke:#000000;stroke-width:1.66048;stroke-linecap:round;stroke-dasharray:none;paint-order:fill markers stroke"
         d="m 834.52318,1831.104 -0.0669,-19.7134"
         id="path70-3-5-9-4-4-1-0-5-1-5-7-8-2-2-5"
         sodipodi:nodetypes="cc" />
      <path
         d="m 810.6368,1838.0212 c 0.058,0.1137 0.1115,0.2341 0.1705,0.3465 0.2782,0.5303 0.5645,1.0462 0.8606,1.5507 0.296,0.5046 0.6008,0.9965 0.9136,1.4753 0.3129,0.4788 0.6353,0.9441 0.964,1.3971 0.3288,0.453 0.665,0.8945 1.0087,1.3216 0.3437,0.4271 0.6956,0.8395 1.0534,1.2406 0.3578,0.4012 0.7216,0.79 1.0925,1.1652 0.3709,0.3752 0.7485,0.7377 1.1316,1.0869 0.3831,0.3492 0.7708,0.6856 1.1652,1.0087 0.3944,0.3231 0.7939,0.6334 1.1987,0.9304 0.4048,0.297 0.8152,0.5814 1.2294,0.8522 0.4142,0.2709 0.8318,0.5267 1.2546,0.7712 0.4227,0.2447 0.8493,0.4774 1.2797,0.6958 0.4304,0.2184 0.865,0.4226 1.3021,0.6147 0.437,0.192 0.8788,0.3708 1.3216,0.5365 0.4428,0.1656 0.8879,0.3189 1.3356,0.4582 0.4477,0.1394 0.898,0.2644 1.3496,0.3772 0.4516,0.1129 0.9033,0.2128 1.3579,0.299 0.4546,0.086 0.9124,0.161 1.3692,0.2207 0.4567,0.06 0.914,0.1037 1.3719,0.1369 0.4578,0.033 0.9138,0.055 1.3719,0.062 0.4581,0.01 0.9173,-10e-4 1.3747,-0.022 0.4575,-0.02 0.9133,-0.054 1.3692,-0.1005 0.4558,-0.047 0.9129,-0.1079 1.3663,-0.1817 0.4533,-0.074 0.9052,-0.1592 1.3551,-0.2598 0.45,-0.1007 0.8957,-0.2162 1.3412,-0.3437 0.4456,-0.1276 0.8898,-0.2674 1.33,-0.4219 0.4403,-0.1545 0.8764,-0.3215 1.3105,-0.503 0.4341,-0.1815 0.8667,-0.3782 1.2937,-0.5867 0.4269,-0.2086 0.8496,-0.4294 1.2685,-0.665 0.419,-0.2357 0.8335,-0.486 1.2434,-0.7489 0.41,-0.2628 0.8154,-0.5398 1.2155,-0.8298 0.4001,-0.29 0.7954,-0.5937 1.1847,-0.9109 0.3893,-0.3173 0.7736,-0.6474 1.1512,-0.9919 0.3775,-0.3446 0.7471,-0.7039 1.1121,-1.0758 0.3649,-0.3719 0.7243,-0.7575 1.0757,-1.1568 0.3514,-0.3993 0.6942,-0.811 1.031,-1.2378 0.3369,-0.4267 0.6677,-0.8674 0.9892,-1.3216 0.3214,-0.4542 0.6336,-0.9209 0.9388,-1.4027 0.3051,-0.4817 0.6034,-0.9799 0.8913,-1.4892 0.216,-0.3822 0.4201,-0.7787 0.6259,-1.1763 -0.058,-0.1131 -0.1117,-0.2319 -0.1704,-0.3438 -0.2783,-0.5302 -0.5646,-1.0489 -0.8606,-1.5534 -0.296,-0.5046 -0.6009,-0.9937 -0.9137,-1.4725 -0.3128,-0.4788 -0.6353,-0.9469 -0.964,-1.3999 -0.3287,-0.4529 -0.665,-0.8917 -1.0087,-1.3189 -0.3437,-0.427 -0.6928,-0.8422 -1.0506,-1.2433 -0.3577,-0.4012 -0.7244,-0.79 -1.0953,-1.1653 -0.3709,-0.3752 -0.7485,-0.7348 -1.1316,-1.0841 -0.3831,-0.3491 -0.7708,-0.6856 -1.1652,-1.0086 -0.3944,-0.3232 -0.7939,-0.6335 -1.1986,-0.9304 -0.4048,-0.297 -0.8152,-0.5814 -1.2295,-0.8522 -0.4142,-0.2709 -0.8318,-0.5295 -1.2545,-0.7741 -0.4228,-0.2446 -0.8494,-0.4746 -1.2798,-0.693 -0.4303,-0.2183 -0.865,-0.4254 -1.302,-0.6175 -0.4371,-0.192 -0.8788,-0.3708 -1.3217,-0.5365 -0.4428,-0.1656 -0.8879,-0.3161 -1.3356,-0.4554 -0.4477,-0.1393 -0.8979,-0.2672 -1.3495,-0.38 -0.4516,-0.1129 -0.9034,-0.2127 -1.358,-0.299 -0.4546,-0.086 -0.9124,-0.1582 -1.3691,-0.2179 -0.4567,-0.06 -0.9141,-0.1066 -1.372,-0.1397 -0.4578,-0.033 -0.9137,-0.052 -1.3719,-0.059 -0.4581,-0.01 -0.9172,-7e-4 -1.3747,0.02 -0.4574,0.02 -0.9133,0.054 -1.3691,0.1005 -0.4559,0.047 -0.913,0.1079 -1.3664,0.1816 -0.4533,0.074 -0.9052,0.162 -1.3551,0.2627 -0.4499,0.1005 -0.8957,0.2133 -1.3412,0.3408 -0.4456,0.1277 -0.8897,0.2703 -1.33,0.4248 -0.4403,0.1545 -0.8764,0.3214 -1.3105,0.5029 -0.434,0.1815 -0.8667,0.3754 -1.2937,0.584 -0.4269,0.2085 -0.8496,0.4321 -1.2685,0.6678 -0.4189,0.2356 -0.8334,0.4832 -1.2434,0.746 -0.41,0.2628 -0.8154,0.5399 -1.2154,0.8299 -0.4001,0.29 -0.7955,0.5936 -1.1848,0.9109 -0.3892,0.3172 -0.7736,0.6473 -1.1511,0.9919 -0.3776,0.3445 -0.7472,0.7038 -1.1121,1.0757 -0.3649,0.3719 -0.7244,0.7575 -1.0758,1.1568 -0.3513,0.3993 -0.6941,0.8139 -1.031,1.2406 -0.3369,0.4268 -0.6677,0.8646 -0.9891,1.3188 -0.3215,0.4543 -0.6337,0.9237 -0.9389,1.4055 -0.3051,0.4818 -0.6034,0.9771 -0.8913,1.4865 -0.2157,0.3816 -0.4203,0.7792 -0.6259,1.1763 z"
         style="fill:#ffffff;stroke:#000000;stroke-width:1.66048;stroke-dasharray:none"
         id="path60-3-0-8-4-8-5-88-8-6-8-0-7-8-3-8-2" />
      <path
         style="fill:#000000;stroke:#000000;stroke-width:1.66048;stroke-dasharray:none;stroke-opacity:1"
         d="m 842.825,1838.5031 c 0.1191,-19.9595 -16.8289,-20.7062 -16.4661,0.1361 -0.1192,19.9595 16.8288,20.7062 16.4661,-0.1361 z"
         id="path2-1-1-8-5-0-0-8-8-3-7-8-1-3-10-3-3-7-3-2-8-6-0-9-0-5-4-9-3-6-0-1-9-5-9-3-1-8-3-8"
         sodipodi:nodetypes="ccc" />
      <path
         style="fill:#ffffff;fill-opacity:1;stroke:#ffffff;stroke-width:1.66048;stroke-linecap:square;stroke-dasharray:none;stroke-opacity:1;paint-order:fill markers stroke"
         d="m 834.72051,1853.4103 c 0,0 -1.43929,-13.1641 -6.37216,-15.0068 4.88636,-1.9628 6.15025,-15.1394 6.15025,-15.1394 0,0 1.43931,13.164 6.3723,15.0068 -4.88654,1.9627 -6.15049,15.1394 -6.15049,15.1394 z"
         id="path23-3-1-5-4-5-8-5-4-3-8-9-1-1-3-0-7-1-0-7-5-7-5-4-2-2-1-9-8-6-6-0"
         sodipodi:nodetypes="cccccc" />
    </g>
  </g>
</svg>
