<?xml version="1.0" encoding="UTF-8" standalone="no"?>
<!-- Created with Inkscape (http://www.inkscape.org/) -->

<svg
   width="14.821862mm"
   height="17.524704mm"
   viewBox="0 0 14.821863 17.524704"
   version="1.1"
   id="svg1"
   inkscape:version="1.3 (0e150ed6c4, 2023-07-21)"
   sodipodi:docname="icons_final.svg"
   xmlns:inkscape="http://www.inkscape.org/namespaces/inkscape"
   xmlns:sodipodi="http://sodipodi.sourceforge.net/DTD/sodipodi-0.dtd"
   xmlns="http://www.w3.org/2000/svg"
   xmlns:svg="http://www.w3.org/2000/svg">
  <sodipodi:namedview
     id="namedview1"
     pagecolor="#ffffff"
     bordercolor="#000000"
     borderopacity="0.25"
     inkscape:showpageshadow="2"
     inkscape:pageopacity="0.0"
     inkscape:pagecheckerboard="0"
     inkscape:deskcolor="#d1d1d1"
     inkscape:document-units="mm"
     inkscape:zoom="0.4894542"
     inkscape:cx="2946.1388"
     inkscape:cy="-346.30411"
     inkscape:window-width="1920"
     inkscape:window-height="991"
     inkscape:window-x="-9"
     inkscape:window-y="-9"
     inkscape:window-maximized="1"
     inkscape:current-layer="layer1"
     showguides="true">
    <sodipodi:guide
       position="-216.45065,16.308424"
       orientation="0,-1"
       id="guide3"
       inkscape:locked="false" />
    <inkscape:page
       x="-7.2267617e-06"
       y="7.7428437e-09"
       width="14.821862"
       height="17.524704"
       id="page11"
       margin="0"
       bleed="0" />
  </sodipodi:namedview>
  <defs
     id="defs1" />
  <g
     inkscape:label="Layer 1"
     inkscape:groupmode="layer"
     id="layer1"
     transform="translate(-759.0459)">
    <g
       id="g22-0-7-6-1-0-1-2-0-8"
       transform="matrix(0.19406494,0,0,0.19406494,-3065.3415,-954.28528)">
      <g
         id="g49-5-8-8-7-2-4-1-4-4-9-0-5-3-9"
         transform="matrix(1.6488874,1.1299024,-1.1299024,1.6488874,19488.818,3022.7634)"
         style="stroke-width:1.22091;stroke-dasharray:none">
        <path
           id="path16-9-5-3-3-1-3-4-0-2"
           style="fill:#ffffff;fill-opacity:1;stroke:#000000;stroke-width:1.22091;stroke-linecap:square;stroke-dasharray:none;stroke-opacity:1;paint-order:fill markers stroke"
           d="m 651.92769,707.22462 a 7.7946982,14.135422 0 0 0 -4.81151,13.05941 7.7946982,14.135422 0 0 0 7.79394,14.13572 7.7946982,14.135422 0 0 0 7.79511,-14.13604 7.7946982,14.135422 0 0 0 -7.79461,-14.13526 7.7946982,14.135422 0 0 0 -2.98293,1.07617 z m 2.25519,5.17192 a 3.0396314,8.1238365 0 0 1 0.3616,-0.1771 3.0396314,8.1238365 0 0 1 0.3658,-0.0593 3.0396314,8.1238365 0 0 1 0.12902,0.008 3.0396314,8.1238365 0 0 1 0.12875,0.0217 3.0396314,8.1238365 0 0 1 0.12893,0.0363 3.0396314,8.1238365 0 0 1 0.12733,0.0512 3.0396314,8.1238365 0 0 1 0.12639,0.0655 3.0396314,8.1238365 0 0 1 0.12545,0.0799 3.0396314,8.1238365 0 0 1 0.12406,0.0937 3.0396314,8.1238365 0 0 1 0.12311,0.10804 3.0396314,8.1238365 0 0 1 0.12059,0.12154 3.0396314,8.1238365 0 0 1 0.11852,0.13572 3.0396314,8.1238365 0 0 1 0.11668,0.14877 3.0396314,8.1238365 0 0 1 0.11368,0.16161 3.0396314,8.1238365 0 0 1 0.11138,0.174 3.0396314,8.1238365 0 0 1 0.10886,0.1875 3.0396314,8.1238365 0 0 1 0.10495,0.19901 3.0396314,8.1238365 0 0 1 0.10219,0.21072 3.0396314,8.1238365 0 0 1 0.0987,0.2229 3.0396314,8.1238365 0 0 1 0.0946,0.2326 3.0396314,8.1238365 0 0 1 0.0918,0.24432 3.0396314,8.1238365 0 0 1 0.0866,0.25382 3.0396314,8.1238365 0 0 1 0.0835,0.26374 3.0396314,8.1238365 0 0 1 0.0789,0.27279 3.0396314,8.1238365 0 0 1 0.0743,0.28182 3.0396314,8.1238365 0 0 1 0.07,0.28975 3.0396314,8.1238365 0 0 1 0.0651,0.29699 3.0396314,8.1238365 0 0 1 0.0607,0.30491 3.0396314,8.1238365 0 0 1 0.0561,0.31104 3.0396314,8.1238365 0 0 1 0.0503,0.31695 3.0396314,8.1238365 0 0 1 0.0457,0.32307 3.0396314,8.1238365 0 0 1 0.0401,0.32786 3.0396314,8.1238365 0 0 1 0.0354,0.33106 3.0396314,8.1238365 0 0 1 0.0299,0.33585 3.0396314,8.1238365 0 0 1 0.0241,0.33884 3.0396314,8.1238365 0 0 1 0.0196,0.34092 3.0396314,8.1238365 0 0 1 0.0129,0.34258 3.0396314,8.1238365 0 0 1 0.008,0.34466 3.0396314,8.1238365 0 0 1 0.003,0.34428 3.0396314,8.1238365 0 0 1 -0.0228,0.97956 3.0396314,8.1238365 0 0 1 -0.0661,0.96507 3.0396314,8.1238365 0 0 1 -0.10911,0.93664 3.0396314,8.1238365 0 0 1 -0.15075,0.89449 3.0396314,8.1238365 0 0 1 -0.18941,0.83952 3.0396314,8.1238365 0 0 1 -0.22689,0.77193 3.0396314,8.1238365 0 0 1 -0.25887,0.69374 3.0396314,8.1238365 0 0 1 -0.28944,0.60473 3.0396314,8.1238365 0 0 1 -0.31381,0.50756 3.0396314,8.1238365 0 0 1 -0.33446,0.40294 3.0396314,8.1238365 0 0 1 -0.35093,0.29152 3.0396314,8.1238365 0 0 1 -0.36093,0.17665 3.0396314,8.1238365 0 0 1 -0.36647,0.0597 3.0396314,8.1238365 0 0 1 -0.3664,-0.0591 3.0396314,8.1238365 0 0 1 -0.36073,-0.17688 3.0396314,8.1238365 0 0 1 -0.35029,-0.292 3.0396314,8.1238365 0 0 1 -0.33485,-0.40271 3.0396314,8.1238365 0 0 1 -0.31418,-0.50719 3.0396314,8.1238365 0 0 1 -0.28892,-0.60499 3.0396314,8.1238365 0 0 1 -0.25951,-0.69386 3.0396314,8.1238365 0 0 1 -0.22682,-0.77221 3.0396314,8.1238365 0 0 1 -0.18972,-0.83985 3.0396314,8.1238365 0 0 1 -0.15044,-0.89425 3.0396314,8.1238365 0 0 1 -0.10987,-0.93676 3.0396314,8.1238365 0 0 1 -0.0655,-0.96519 3.0396314,8.1238365 0 0 1 -0.0222,-0.97921 3.0396314,8.1238365 0 0 1 0.0221,-0.9791 3.0396314,8.1238365 0 0 1 0.0661,-0.96507 3.0396314,8.1238365 0 0 1 0.10911,-0.93664 3.0396314,8.1238365 0 0 1 0.15075,-0.8945 3.0396314,8.1238365 0 0 1 0.18987,-0.83884 3.0396314,8.1238365 0 0 1 0.22643,-0.77261 3.0396314,8.1238365 0 0 1 0.25954,-0.69419 3.0396314,8.1238365 0 0 1 0.28877,-0.60427 3.0396314,8.1238365 0 0 1 0.31448,-0.50803 3.0396314,8.1238365 0 0 1 0.33492,-0.40227 3.0396314,8.1238365 0 0 1 0.3498,-0.29173 z" />
      </g>
      <path
         id="path92-5-5-3-5-9-9-8-8-1-3"
         style="fill:#ffffff;stroke:#000000;stroke-width:2.44044;stroke-linecap:square;stroke-dasharray:none;paint-order:fill markers stroke"
         d="m 19753.429,4952.5247 c -0.676,-0.4614 -1.415,-0.8259 -2.213,-1.09 -0.795,-0.2644 -1.646,-0.4288 -2.544,-0.4899 -0.403,-4e-4 -0.814,0.02 -1.231,0.056 -0.267,0.4961 -0.53,0.9856 -0.788,1.4672 -0.424,0.9008 -0.805,1.7782 -1.123,2.6328 -0.319,0.8545 -0.579,1.6775 -0.771,2.4584 -0.198,0.7795 -0.321,1.5111 -0.38,2.1857 -0.06,0.6736 -0.06,1.2866 0,1.8299 0.04,0.182 0.1,0.3563 0.159,0.5186 v 0 c 0.07,0.3242 0.141,0.619 0.26,0.8833 0.206,0.394 0.474,0.7061 0.801,0.932 0.33,0.2234 0.716,0.3596 1.156,0.408 0.299,0.02 0.623,-0.02 0.968,-0.081 v 0 0 c 0,0.032 0.03,0.073 0.04,0.1179 0.03,0.1699 0.07,0.3604 0.1,0.553 0,0.19 0.04,0.3951 0.04,0.6053 0,0.2079 0,0.4263 0,0.6501 0,0.226 -0.03,0.4595 -0.07,0.699 -0.03,0.2429 -0.07,0.4853 -0.1,0.7379 -0.04,0.2496 -0.1,0.5136 -0.158,0.7786 -0.07,0.2651 -0.121,0.5373 -0.202,0.8136 -0.07,0.2793 -0.16,0.5543 -0.247,0.8439 -0.1,0.2815 -0.18,0.5806 -0.292,0.8689 -0.1,0.295 -0.215,0.5958 -0.34,0.8943 -0.119,0.3053 -0.243,0.6044 -0.374,0.9107 -0.142,0.3052 -0.278,0.6153 -0.421,0.9296 -0.14,0.3134 -0.304,0.6195 -0.45,0.9404 -0.14,0.2578 -0.276,0.5062 -0.405,0.7681 -0.05,0.054 -0.09,0.108 -0.1,0.1719 -0.16,0.3162 -0.356,0.6241 -0.528,0.9454 -0.18,0.3089 -0.359,0.631 -0.565,0.9324 -0.2,0.3139 -0.385,0.6291 -0.592,0.934 -0.207,0.3043 -0.417,0.6095 -0.627,0.9144 -0.6,0.8772 -1.234,1.7294 -1.887,2.5443 -0.657,0.8151 -1.332,1.5888 -2.009,2.3152 -0.672,0.7324 -1.367,1.3971 -2.049,2.0035 -0.683,0.6041 -1.357,1.14 -2.016,1.6008 -0.657,0.4607 -1.292,0.8445 -1.9,1.1442 -0.609,0.3003 -1.184,0.5168 -1.717,0.6466 -0.531,0.1279 -1.021,0.1659 -1.461,0.1139 -0.44,-0.051 -0.824,-0.186 -1.154,-0.4114 -0.328,-0.2246 -0.597,-0.5355 -0.801,-0.9276 -0.206,-0.3921 -0.347,-0.8624 -0.42,-1.4052 -0.07,-0.5443 -0.07,-1.1574 0,-1.833 0.06,-0.6746 0.18,-1.4066 0.38,-2.1861 0.201,-0.7785 0.451,-1.6014 0.77,-2.4547 0.318,-0.856 0.693,-1.7386 1.125,-2.6363 0.423,-0.9008 0.909,-1.8041 1.435,-2.7086 0.524,-0.9051 1.089,-1.8024 1.69,-2.6796 0.602,-0.878 1.235,-1.7312 1.892,-2.5475 0.297,-0.3635 0.607,-0.7109 0.913,-1.0527 -0.199,-0.4787 -0.363,-0.9817 -0.51,-1.5086 -0.217,-0.9641 -0.355,-1.9971 -0.408,-3.0882 -0.07,-1.0912 -0.03,-2.2371 0.1,-3.4265 0.12,-1.1892 0.314,-2.4191 0.593,-3.6775 0.12,-0.4214 0.234,-0.854 0.364,-1.2841 -0.712,0.4945 -1.421,1.0265 -2.122,1.5924 -1.052,0.8788 -2.083,1.831 -3.088,2.8486 -1.005,1.0196 -1.979,2.1021 -2.91,3.2364 -0.925,1.138 -1.827,2.312 -2.664,3.5328 -0.835,1.2208 -1.62,2.4735 -2.333,3.7585 -0.727,1.2734 -1.379,2.5743 -1.966,3.8775 -0.586,1.3045 -1.101,2.6115 -1.542,3.9082 -0.438,1.2976 -0.803,2.583 -1.084,3.8426 -0.281,1.2584 -0.479,2.4882 -0.592,3.6776 -0.121,1.1891 -0.16,2.3352 -0.1,3.4263 0.06,1.0914 0.199,2.1241 0.411,3.0882 0.22,0.9659 0.521,1.8602 0.902,2.6766 0.382,0.8169 0.841,1.5507 1.377,2.1982 0.536,0.6475 1.141,1.2043 1.815,1.6651 0.675,0.462 1.411,0.8261 2.206,1.0907 0.798,0.2654 1.648,0.4287 2.548,0.491 0.9,0.059 1.84,0.02 2.822,-0.1259 0.977,-0.1439 1.991,-0.3879 3.028,-0.7311 1.036,-0.345 2.096,-0.7874 3.163,-1.3248 1.067,-0.5374 2.142,-1.1663 3.212,-1.8833 1.073,-0.7174 2.142,-1.5191 3.192,-2.3986 1.051,-0.8785 2.084,-1.8307 3.088,-2.8484 1.004,-1.0187 1.975,-2.1 2.906,-3.2334 0.926,-1.1379 1.828,-2.3117 2.666,-3.5326 0.276,-0.407 0.557,-0.814 0.818,-1.2319 0.279,-0.4064 0.524,-0.8349 0.784,-1.2511 0.262,-0.4153 0.503,-0.8406 0.746,-1.2642 0.244,-0.425 0.467,-0.8594 0.707,-1.2803 0.223,-0.4315 0.444,-0.8607 0.648,-1.2982 0.22,-0.4277 0.422,-0.8639 0.612,-1.3034 0.2,-0.4317 0.379,-0.8717 0.564,-1.3033 0.18,-0.4361 0.35,-0.8697 0.512,-1.3044 0.161,-0.4397 0.318,-0.8679 0.466,-1.2994 0.141,-0.43 0.285,-0.8624 0.417,-1.2916 0.12,-0.4314 0.249,-0.856 0.362,-1.2806 v -0.026 c 0.12,-0.4112 0.205,-0.8258 0.297,-1.2343 0.1,-0.4202 0.18,-0.8371 0.256,-1.2497 0.07,-0.4178 0.14,-0.8229 0.199,-1.2282 0.07,-0.404 0.1,-0.8044 0.14,-1.2007 0.05,-0.4009 0.06,-0.7897 0.09,-1.1763 0.03,-0.3862 0.03,-0.7679 0.03,-1.1434 0,-0.3742 0,-0.7444 -0.03,-1.107 0,-0.364 -0.04,-0.7212 -0.09,-1.072 -0.04,-0.3502 -0.09,-0.6939 -0.14,-1.0299 -0.06,-0.3367 -0.12,-0.6667 -0.199,-0.9895 -0.09,-0.3212 -0.16,-0.634 -0.246,-0.9396 -0.06,-0.2155 -0.141,-0.4215 -0.21,-0.6268 -0.04,-0.092 -0.07,-0.1819 -0.1,-0.2662 -0.1,-0.2886 -0.228,-0.5687 -0.356,-0.8407 -0.121,-0.2728 -0.264,-0.5361 -0.408,-0.791 -0.14,-0.2528 -0.299,-0.4973 -0.462,-0.7318 -0.159,-0.2333 -0.33,-0.4587 -0.506,-0.6742 -0.18,-0.2172 -0.362,-0.4243 -0.553,-0.6214 -0.2,-0.1959 -0.399,-0.3831 -0.609,-0.5593 -0.207,-0.1739 -0.422,-0.3381 -0.645,-0.4918 z"
         sodipodi:nodetypes="cccccccsccccccccccsssccssssssscccssscsccscccsccccsssscccccccccssssccccccsssccscscssssccsccsscsssccccsscssscccsssccscc" />
      <path
         style="fill:none;fill-opacity:1;stroke:#000000;stroke-width:3.09;stroke-linecap:square;stroke-dasharray:none;stroke-opacity:1;paint-order:fill markers stroke"
         d="m 19733.466,4958.921 c 0,0 -1.845,5.1034 0.482,9.5592"
         id="path64-2-4-5-1-5-1-1-8-8-3-9-8"
         sodipodi:nodetypes="cc" />
      <path
         style="fill:none;fill-opacity:1;stroke:#000000;stroke-width:1.79;stroke-linecap:square;stroke-dasharray:none;stroke-opacity:1;paint-order:fill markers stroke"
         d="m 19743.899,4974.4924 c 0,0 7.314,-11.2766 1.838,-12.9864"
         id="path64-2-6-7-7-0-5-8-6-8-1-3-6-7"
         sodipodi:nodetypes="cc" />
      <path
         style="fill:none;fill-opacity:1;stroke:#000000;stroke-width:3.69;stroke-linecap:square;stroke-dasharray:none;stroke-opacity:1;paint-order:fill markers stroke"
         d="m 19743.492,4974.019 c 0,0 3.266,-6.0954 2.985,-9.8564"
         id="path64-2-6-7-7-8-0-3-0-9-8-8-7-6-0"
         sodipodi:nodetypes="cc" />
    </g>
  </g>
</svg>
