<?xml version="1.0" encoding="UTF-8" standalone="no"?>
<!-- Created with Inkscape (http://www.inkscape.org/) -->

<svg
   width="17.254419mm"
   height="17.93013mm"
   viewBox="0 0 17.25442 17.93013"
   version="1.1"
   id="svg1"
   inkscape:version="1.3 (0e150ed6c4, 2023-07-21)"
   sodipodi:docname="icons_final.svg"
   xmlns:inkscape="http://www.inkscape.org/namespaces/inkscape"
   xmlns:sodipodi="http://sodipodi.sourceforge.net/DTD/sodipodi-0.dtd"
   xmlns="http://www.w3.org/2000/svg"
   xmlns:svg="http://www.w3.org/2000/svg">
  <sodipodi:namedview
     id="namedview1"
     pagecolor="#ffffff"
     bordercolor="#000000"
     borderopacity="0.25"
     inkscape:showpageshadow="2"
     inkscape:pageopacity="0.0"
     inkscape:pagecheckerboard="0"
     inkscape:deskcolor="#d1d1d1"
     inkscape:document-units="mm"
     inkscape:zoom="0.4894542"
     inkscape:cx="2946.1388"
     inkscape:cy="-346.30411"
     inkscape:window-width="1920"
     inkscape:window-height="991"
     inkscape:window-x="-9"
     inkscape:window-y="-9"
     inkscape:window-maximized="1"
     inkscape:current-layer="layer1"
     showguides="true">
    <sodipodi:guide
       position="-241.54281,16.308424"
       orientation="0,-1"
       id="guide3"
       inkscape:locked="false" />
    <inkscape:page
       x="-6.535402e-06"
       y="1.0090356e-08"
       width="17.254419"
       height="17.93013"
       id="page12"
       margin="0"
       bleed="0" />
  </sodipodi:namedview>
  <defs
     id="defs1">
    <inkscape:path-effect
       effect="spiro"
       id="path-effect96-0-9-4-1-7-1-4-5-4-9-3-4-8-0-3-5-2-3-4"
       is_visible="true"
       lpeversion="1" />
  </defs>
  <g
     inkscape:label="Layer 1"
     inkscape:groupmode="layer"
     id="layer1"
     transform="translate(-784.13806)">
    <g
       id="g160-1-8-0-3-6-2-3-3-9"
       transform="matrix(0.44694951,0,0,0.44694951,-717.61064,-1228.443)"
       style="stroke-width:0.999996;stroke-dasharray:none">
      <rect
         style="fill:#000000;fill-opacity:1;stroke:#000000;stroke-width:0.999996;stroke-linecap:round;stroke-linejoin:round;stroke-dasharray:none;stroke-opacity:1;paint-order:fill markers stroke"
         id="rect95-8-0-8-2-3-9-6-0-2-8-6-4-7-8-3-1-6-0-5"
         width="31.329334"
         height="32.526855"
         x="3364.3352"
         y="2752.4001"
         ry="0" />
      <path
         style="fill:#ffffff;fill-opacity:1;stroke:none;stroke-width:0.999996;stroke-linecap:round;stroke-linejoin:round;stroke-dasharray:none;stroke-opacity:1;paint-order:fill markers stroke"
         d="m 1963.623,866.61872 c -0.3278,-1.47444 -0.1521,-3.05606 0.4914,-4.42259 0.6434,-1.36652 1.7506,-2.50954 3.096,-3.19613 0.4938,-0.25198 1.0271,-0.44587 1.5806,-0.47657 0.5535,-0.0307 1.1308,0.11505 1.551,0.47657 0.225,0.19355 0.3979,0.44095 0.5424,0.70021 0.1444,0.25926 0.2624,0.53221 0.394,0.79825 0.1315,0.26603 0.2781,0.52739 0.4722,0.75187 0.1942,0.22448 0.4396,0.41168 0.723,0.49967 0.3554,0.11033 0.7513,0.0552 1.0829,-0.1137 0.3316,-0.16894 0.6013,-0.44498 0.7987,-0.76045 0.3948,-0.63094 0.5032,-1.39273 0.6316,-2.12585 0.32,-1.8271 0.8189,-3.64593 0.7632,-5.5 -0.027,-0.89455 -0.1815,-1.80728 0.046,-2.67276 0.1139,-0.43274 0.3281,-0.84719 0.6595,-1.14787 0.1657,-0.15034 0.3595,-0.27078 0.5704,-0.34546 0.2109,-0.0747 0.439,-0.10299 0.6609,-0.0743 0.2807,0.0362 0.5458,0.16288 0.7664,0.34031 0.2206,0.17743 0.3982,0.4042 0.5397,0.64939 0.2829,0.49039 0.422,1.0477 0.6001,1.5851 0.1781,0.5374 0.4104,1.07935 0.8291,1.46031 0.2094,0.19048 0.4638,0.33568 0.7405,0.39561 0.2766,0.0599 0.5757,0.0309 0.8254,-0.10248 0.2826,-0.15089 0.482,-0.4189 0.6541,-0.6891 0.172,-0.27019 0.3301,-0.55577 0.5649,-0.7737 0.2084,-0.19345 0.4715,-0.32543 0.7493,-0.38632 0.2777,-0.0609 0.5695,-0.0515 0.8453,0.0176 0.5517,0.13818 1.0271,0.51174 1.356,0.9757 0.3289,0.46395 0.5206,1.01372 0.6296,1.57187 0.109,0.55815 0.139,1.1283 0.1698,1.69617 0.079,1.46487 0.1734,2.96355 0.75,4.3125 0.4424,1.03502 1.1555,1.94617 1.5166,3.01229 0.1806,0.53306 0.2689,1.10704 0.1752,1.66199 -0.094,0.55494 -0.3833,1.08903 -0.8458,1.40967 -0.3178,0.22028 -0.7004,0.33161 -1.084,0.38007 -0.3836,0.0485 -0.7719,0.0374 -1.1585,0.0328 -0.8053,-0.01 -1.6106,0.01 -2.416,0.0139 -0.6316,0.003 -1.2632,0 -1.8948,0 h -6.1702 c -2.8539,0 -5.7079,-0.008 -8.5617,0.0152 z"
         id="path96-3-7-7-9-8-4-0-1-7-5-4-5-1-6-4-3-5-7"
         inkscape:path-effect="#path-effect96-0-9-4-1-7-1-4-5-4-9-3-4-8-0-3-5-2-3-4"
         inkscape:original-d="m 1963.623,866.61872 c -1.5833,-0.16666 2.0874,-5.28538 3.5874,-7.61872 1.5,-2.33333 1.7983,0 3.1316,0 1.3333,0 1.1316,1.83334 2.1316,2.75 1,0.91667 1.0965,-2 2.5132,-3 1.4167,-1 -0.07,-3.66666 0.7632,-5.5 0.8333,-1.83333 0.9371,-2.4071 1.9371,-4.24044 1,-1.83333 2.8845,3.49491 4.3012,4.32824 1.4167,0.83334 0.219,-1.37946 1.219,-1.4628 1,-0.0833 2.4167,2.79167 3.75,3.875 1.3333,1.08334 0.5,0.72917 0.75,4.3125 0.25,3.58334 0.6793,5.25062 0.846,6.08395 0.1667,0.83334 -1.4925,0.49625 -2.2425,0.41291 -0.75,-0.0833 -1.5827,-0.1528 -2.416,0.0139 -0.8333,0.16667 -0.3948,0 -1.8948,0 h -6.1702 c -3.8333,0 -5.8117,0.0985 -8.5617,0.0152 z"
         sodipodi:nodetypes="cssssssssssssssscc"
         transform="translate(1403.6689,1915.6291)" />
      <path
         id="path104-7-6-1-3-0-0-2-3-4"
         style="fill:#ffffff;fill-opacity:1;stroke:#000000;stroke-width:0.771277;stroke-linecap:round;stroke-linejoin:round;stroke-dasharray:none;stroke-opacity:1;paint-order:fill markers stroke"
         d="m 3371.5002,2755.2154 a 4.7095861,4.7095861 0 0 0 -4.7098,4.7098 4.7095861,4.7095861 0 0 0 4.7098,4.7098 4.7095861,4.7095861 0 0 0 3.608,-1.69 3.0215626,3.0215626 0 0 1 -0.022,0 3.0215626,3.0215626 0 0 1 -0.4294,-0.031 3.0215626,3.0215626 0 0 1 -0.4215,-0.091 3.0215626,3.0215626 0 0 1 -0.4042,-0.1507 3.0215626,3.0215626 0 0 1 -0.3774,-0.2068 3.0215626,3.0215626 0 0 1 -0.3456,-0.2588 3.0215626,3.0215626 0 0 1 -0.3053,-0.3041 3.0215626,3.0215626 0 0 1 -0.2576,-0.3454 3.0215626,3.0215626 0 0 1 -0.2067,-0.3789 3.0215626,3.0215626 0 0 1 -0.1507,-0.4041 3.0215626,3.0215626 0 0 1 -0.092,-0.4202 3.0215626,3.0215626 0 0 1 -0.031,-0.4308 3.0215626,3.0215626 0 0 1 0.031,-0.4295 3.0215626,3.0215626 0 0 1 0.092,-0.4215 3.0215626,3.0215626 0 0 1 0.1507,-0.4041 3.0215626,3.0215626 0 0 1 0.2067,-0.3789 3.0215626,3.0215626 0 0 1 0.2576,-0.3441 3.0215626,3.0215626 0 0 1 0.3053,-0.3054 3.0215626,3.0215626 0 0 1 0.3456,-0.2588 3.0215626,3.0215626 0 0 1 0.3774,-0.2054 3.0215626,3.0215626 0 0 1 0.4042,-0.1508 3.0215626,3.0215626 0 0 1 0.4215,-0.092 3.0215626,3.0215626 0 0 1 0.4294,-0.031 3.0215626,3.0215626 0 0 1 0.028,0 4.7095861,4.7095861 0 0 0 -3.6134,-1.69 z" />
    </g>
  </g>
</svg>
